<?xml version="1.0" encoding="utf-8"?>
<!-- Generator: Adobe Illustrator 24.0.1, SVG Export Plug-In . SVG Version: 6.00 Build 0)  -->
<svg version="1.1" id="Layer_1" xmlns="http://www.w3.org/2000/svg" xmlns:xlink="http://www.w3.org/1999/xlink" x="0px" y="0px"
	 viewBox="0 0 200 200" style="enable-background:new 0 0 200 200;" xml:space="preserve">
<style type="text/css">
	.st0{fill:none;stroke:#231F20;stroke-width:4;stroke-miterlimit:10;}
	.st1{fill:none;stroke:#231F20;stroke-width:2;stroke-miterlimit:10;}
	.st2{fill:#231F20;}
	.st3{fill:#C2C2C1;}
	.st4{fill:none;stroke:#000000;stroke-linejoin:round;}
	.st5{fill:none;stroke:#000000;stroke-miterlimit:10;}
	.st6{fill:none;stroke:#000000;stroke-width:2;stroke-miterlimit:10;}
	.st7{fill:none;stroke:#231F20;stroke-miterlimit:10;}
	.st8{fill:#FFFFFF;stroke:#000000;stroke-miterlimit:10;}
</style>
<title>portfolio-logo-set</title>
<path class="st0" d="M105.1-303.4h114c5.5,0,10,4.5,10,10v93.5c0,5.5-4.5,10-10,10h-114c-5.5,0-10-4.5-10-10v-93.5
	C95.1-298.9,99.5-303.4,105.1-303.4z"/>
<path class="st1" d="M-142.4-306.4h99c5.5,0,10,4.5,10,10v82.1c0,5.5-4.5,10-10,10h-99c-5.5,0-10-4.5-10-10v-82.1
	C-152.4-301.9-148-306.4-142.4-306.4z"/>
<line class="st1" x1="-152.4" y1="-283.7" x2="-33.4" y2="-283.7"/>
<path class="st2" d="M122.5-261.3v2.8l-12.2,7.6l-1.4-2l11.3-7l-11.3-6.9l1.3-2L122.5-261.3z"/>
<path class="st2" d="M124-253.4h16v2.4h-16V-253.4z"/>
<path class="st0" d="M347.7-303.4h114c5.5,0,10,4.5,10,10v93.5c0,5.5-4.5,10-10,10h-114c-5.5,0-10-4.5-10-10v-93.5
	C337.7-298.9,342.2-303.4,347.7-303.4z"/>
<line class="st1" x1="337.7" y1="-280.2" x2="472.2" y2="-280.2"/>
<line class="st1" x1="94.9" y1="-280.2" x2="229.3" y2="-280.2"/>
<rect x="343.7" y="-253.9" class="st3" width="72.2" height="35.6"/>
<rect x="421" y="-253.9" class="st3" width="44.8" height="15.3"/>
<rect x="343.7" y="-274.3" class="st3" width="22.4" height="15.3"/>
<rect x="371.1" y="-274.3" class="st3" width="94.6" height="15.3"/>
<rect x="421" y="-233.7" class="st3" width="44.8" height="15.3"/>
<rect x="343.7" y="-213.4" class="st3" width="122" height="15.3"/>
<g id="gJjI1E.tif_1_">
	<path class="st4" d="M919.5-409.6h4.3c0.8,0.2,1.7,0.3,2.5,0.5c3.7,0.8,7.2,2.7,9.9,5.4c0.3,0.3,0.7,0.4,1.1,0.4
		c2.4-0.7,4.9-1.4,7.3-2.3c1.8-0.7,3.4-1.6,5.3-2.5c-1.5,4.5-4.5,8.4-8.5,11.1c3.9-0.4,7.6-1.4,11.2-3c-0.3,0.4-0.4,0.6-0.5,0.8
		c-2.4,3.5-5.4,6.6-8.9,9.2c-0.6,0.4-0.9,1-0.8,1.7c0.2,4.9-0.3,9.7-1.5,14.5c-3,12.6-9.1,23.3-18.8,31.8
		c-8.3,7.4-18.7,12-29.7,13.3c-1.6,0.2-3.2,0.4-4.8,0.6h-6.7c-1.9-0.2-3.8-0.3-5.7-0.6c-6.8-1-13.4-3.3-19.4-6.6
		c-1.1-0.6-2.1-1.2-3.1-1.8c5.3,0.4,10.7-0.2,15.8-1.6c5.2-1.4,10-3.9,14.2-7.2c-4.3-0.1-8.5-1.5-11.9-4.1c-3.4-2.5-5.9-6-7.2-10.1
		c1.6,0.1,3,0.2,4.4,0.2s2.9-0.3,4.3-0.5c-4.6-1.2-8.6-3.8-11.6-7.5c-3-3.7-4.6-8.3-4.5-13.1c2.8,1.5,6,2.4,9.2,2.5
		c-4.5-3.3-7.4-7.4-8.5-12.5c-1.2-5.1-0.4-10.4,2.3-14.9c5.2,6.4,11.7,11.6,19,15.3c7.2,3.7,15.1,5.8,23.2,6.2
		c-0.2-2.1-0.2-4.2-0.2-6.2c0.8-8.5,5.3-14.4,13.2-17.6C916.2-408.8,917.8-409.3,919.5-409.6z"/>
</g>
<g id="gi95s1.tif_1_">
	<path class="st5" d="M50.1,100.1c0-4.6-0.3-9.2,0.1-13.8c0.2-2,1.4-4.5,2.9-5.5c14.4-9.9,29-19.4,43.5-29.2
		c2.4-1.6,4.4-1.5,6.8,0.1c14.4,9.7,28.8,19.3,43.3,28.9c2.3,1.5,3.2,3.5,3.2,6.2c-0.1,8.9-0.1,17.7,0,26.6c0.2,2.6-1.2,5.1-3.5,6.5
		c-14.3,9.4-28.5,18.9-42.7,28.5c-2.8,1.9-5,1.8-7.7,0c-14.2-9.6-28.4-19.1-42.7-28.5c-2.3-1.3-3.6-3.9-3.4-6.5
		C50.2,108.9,50.1,104.5,50.1,100.1z M61.9,84.8c5,3.3,9.5,6.4,14.1,9.3c0.8,0.3,1.7,0.3,2.5-0.1c5.4-3.5,10.8-7.1,16.1-10.8
		c0.7-0.5,1.2-1.4,1.3-2.3c0.1-6,0.1-11.9,0.1-18.8L61.9,84.8z M138.1,84.8l-34-22.6c0,6.8-0.1,12.7,0.1,18.6c0,1,1,2.3,2,2.9
		c4.9,3.4,9.9,6.8,14.9,9.9c1,0.6,2.2,0.6,3.3,0.2C128.9,91.1,133.2,88.1,138.1,84.8z M61.9,115.3l34,22.6c0-6.8,0-12.8-0.1-18.8
		c-0.1-0.9-0.6-1.7-1.3-2.2c-5.3-3.7-10.7-7.3-16.1-10.8c-0.8-0.4-1.7-0.5-2.5-0.1C71.4,108.9,66.9,112,61.9,115.3z M138.1,115.3
		c-4.9-3.3-9.2-6.3-13.7-9c-1.1-0.4-2.3-0.4-3.3,0.2c-5.1,3.2-10,6.6-15,9.9c-0.8,0.5-1.9,1.5-1.9,2.2c-0.2,6.2-0.1,12.4-0.1,19.3
		L138.1,115.3z M84.7,100c4.9,3.3,9.5,6.4,14.2,9.5c0.8,0.3,1.7,0.3,2.4-0.2c4.6-3,9.1-6.1,13.9-9.3c-4.8-3.2-9.2-6.3-13.8-9.2
		c-0.9-0.5-2.1-0.5-3,0C93.9,93.8,89.5,96.8,84.7,100z M58.7,107.3l10.8-7.3l-10.8-7.2V107.3z M141.3,92.8l-10.8,7.2l10.8,7.2
		L141.3,92.8z"/>
</g>
<g id="gi95s1.tif_2_">
	<path class="st5" d="M-216.2,100.1c0-4.6-0.3-9.2,0.1-13.8c0.2-2,1.4-4.5,2.9-5.5c14.4-9.9,29-19.4,43.5-29.2
		c2.4-1.6,4.4-1.5,6.8,0.1c14.4,9.7,28.8,19.3,43.3,28.9c2.3,1.5,3.2,3.5,3.2,6.2c-0.1,8.9-0.1,17.7,0,26.6c0.2,2.6-1.2,5.1-3.5,6.5
		c-14.3,9.4-28.5,18.9-42.7,28.5c-2.8,1.9-5,1.8-7.7,0c-14.2-9.6-28.4-19.1-42.7-28.5c-2.3-1.3-3.6-3.9-3.4-6.5
		C-216.1,108.9-216.2,104.5-216.2,100.1z M-204.3,84.8c5,3.3,9.5,6.4,14.1,9.3c0.8,0.3,1.7,0.3,2.5-0.1c5.4-3.5,10.8-7.1,16.1-10.8
		c0.7-0.5,1.2-1.4,1.3-2.3c0.1-6,0.1-11.9,0.1-18.8L-204.3,84.8z M-128.2,84.8l-34-22.6c0,6.8-0.1,12.7,0.1,18.6c0,1,1,2.3,2,2.9
		c4.9,3.4,9.9,6.8,14.9,9.9c1,0.6,2.2,0.6,3.3,0.2C-137.4,91.1-133,88.1-128.2,84.8z M-204.3,115.3l34,22.6c0-6.8,0-12.8-0.1-18.8
		c-0.1-0.9-0.6-1.7-1.3-2.2c-5.3-3.7-10.7-7.3-16.1-10.8c-0.8-0.4-1.7-0.5-2.5-0.1C-194.8,108.9-199.3,112-204.3,115.3z
		 M-128.2,115.3c-4.9-3.3-9.2-6.3-13.7-9c-1.1-0.4-2.3-0.4-3.3,0.2c-5.1,3.2-10,6.6-15,9.9c-0.8,0.5-1.9,1.5-1.9,2.2
		c-0.2,6.2-0.1,12.4-0.1,19.3L-128.2,115.3z M-181.5,100c4.9,3.3,9.5,6.4,14.2,9.5c0.8,0.3,1.7,0.3,2.4-0.2c4.6-3,9.1-6.1,13.9-9.3
		c-4.8-3.2-9.2-6.3-13.8-9.2c-0.9-0.5-2.1-0.5-3,0C-172.3,93.8-176.8,96.8-181.5,100z M-207.6,107.3l10.8-7.3l-10.8-7.2V107.3z
		 M-124.9,92.8l-10.8,7.2l10.8,7.2L-124.9,92.8z"/>
</g>
<g id="_7JV8hd.tif_1_">
	<path class="st5" d="M-360.7,155.6c-2.4,0-3.5-0.9-3.9-3.3c-0.1-0.7-0.1-1.3-0.1-2c0-6.5,0-12.8,0-19.2c0-3.7-1-7.2-3.1-10.3
		c-0.4-0.6-0.9-1.2-1.5-2c1.4-0.3,2.7-0.5,4-0.7c4.5-0.7,8.8-2.1,13-3.9c5.7-2.7,10.3-7.5,12.7-13.4c2.8-6.3,3.9-13.2,3.2-20
		c-0.4-4.5-1.9-8.9-4.4-12.7c-0.4-0.6-0.7-1.3-1.2-1.8c-1.2-1.6-1.5-3.6-0.9-5.5c1.1-4.9,0.7-10-1.1-14.7c-0.3-1-1.3-1.6-2.3-1.5
		c-3.4,0.1-6.7,1-9.6,2.7c-2.3,1.2-4.5,2.4-6.7,3.7c-1.2,0.7-2.6,0.9-3.9,0.6c-8.1-1.9-16.4-2.3-24.6-1.3c-2.6,0.3-5.2,0.8-7.8,1.4
		c-1.3,0.3-2.6,0.1-3.7-0.6c-3.7-2.4-7.8-4.4-12.1-5.7c-1.5-0.4-3-0.6-4.5-0.8c-1-0.2-2,0.4-2.2,1.4c-2,5.2-2.3,10.9-0.9,16.3
		c0.4,1.1,0.1,2.2-0.6,3.1c-3.3,4-5.3,8.7-6,13.8c-0.6,4.7-0.4,9.5,0.6,14.2c0.7,4.5,2.5,8.8,5,12.5c3.5,5,8.5,8.6,14.3,10.3
		c3.7,1.1,7.4,1.8,11.2,2.7c0.4,0.1,0.8,0.2,1.4,0.3c-0.7,0.8-1.2,1.6-1.8,2.4c-0.9,1.9-1.6,3.9-2.4,5.9c-0.2,0.6-0.6,1.1-1.1,1.5
		c-4.5,1.9-9.1,2.5-13.7,0.1c-2.4-1.4-4.5-3.3-6.1-5.6c-1.6-2.3-3.2-4.6-5.7-6.1c-2.5-1.5-4.9-2.3-7.7-1.7c-0.5,0.1-1.3,0.4-1.4,0.8
		c0,0.6,0.2,1.1,0.6,1.5c0.7,0.7,1.6,1.4,2.5,2c2.6,1.8,4.7,4.3,6.1,7.2c1.3,2.6,2.3,5.3,4.4,7.4c2.7,2.8,6.3,4.6,10.2,4.8
		c3.4,0.2,6.9,0,10.3-0.1h1.1c0,0.4,0.1,0.8,0.1,1.2c0,3.9-0.1,7.8-0.1,11.8c0.1,2.9-1.7,3.6-3.7,3.7c-0.2,0-0.4,0-0.7,0"/>
</g>
<g id="_7JV8hd.tif-2">
	<path class="st6" d="M-341.1-173.6h-47.5c-2.6,0-3.8-0.9-4.2-3.5c-0.1-0.7-0.2-1.4-0.1-2.1c0-7,0-13.9,0-20.9
		c0.1-4-1.1-7.8-3.3-11.1c-0.5-0.7-1-1.3-1.6-2.1c1.5-0.3,2.9-0.5,4.3-0.8c4.9-0.8,9.6-2.2,14.1-4.3c6.2-3,11.1-8.2,13.8-14.5
		c3-6.8,4.2-14.3,3.4-21.8c-0.4-4.9-2.1-9.7-4.8-13.8c-0.5-0.6-0.8-1.4-1.3-2c-1.3-1.7-1.6-4-1-6c1.2-5.3,0.8-10.8-1.2-15.9
		c-0.3-1.1-1.4-1.7-2.5-1.6c-3.7,0.1-7.2,1.1-10.4,2.9c-2.5,1.3-4.9,2.6-7.3,4c-1.3,0.8-2.8,1-4.2,0.6c-8.8-2.1-17.8-2.5-26.7-1.5
		c-2.8,0.3-5.6,0.9-8.4,1.5c-1.4,0.3-2.8,0.1-4-0.7c-4.1-2.7-8.5-4.7-13.1-6.1c-1.6-0.4-3.3-0.7-4.9-0.9c-1.1-0.2-2.1,0.4-2.4,1.5
		c-2.1,5.6-2.5,11.8-0.9,17.7c0.4,1.2,0.1,2.4-0.7,3.3c-3.5,4.3-5.8,9.5-6.5,15c-0.6,5.1-0.4,10.3,0.6,15.4
		c0.8,4.9,2.7,9.5,5.5,13.6c3.8,5.4,9.3,9.3,15.6,11.2c4,1.2,8.1,2,12.1,2.9c0.5,0.1,0.9,0.2,1.5,0.3c-0.7,0.8-1.4,1.7-1.9,2.6
		c-1,2.1-1.7,4.2-2.6,6.4c-0.2,0.7-0.6,1.2-1.2,1.6c-4.9,2.1-9.9,2.7-14.8,0.1c-2.6-1.5-4.9-3.6-6.6-6.1c-1.8-2.5-3.5-5-6.2-6.7
		s-5.3-2.5-8.4-1.9c-0.6,0.1-1.4,0.5-1.5,0.9c0,0.6,0.2,1.2,0.6,1.6c0.8,0.8,1.7,1.5,2.7,2.2c2.9,2,5.1,4.7,6.7,7.8
		c1.4,2.8,2.5,5.7,4.8,8.1c2.9,3.1,6.8,4.9,11.1,5.2c3.7,0.2,7.5,0,11.2-0.1h1.2c0,0.4,0.1,0.8,0.1,1.2c0,4.2-0.2,8.5-0.1,12.8
		c0.1,3.1-1.9,3.9-4,4c-0.2,0-0.5,0-0.7,0h-43.6c-3,0-4.5-1.5-4.5-4.5c0-45.5,0-90.9,0-136.4c0-3,1.5-4.5,4.5-4.5h135.2
		c3,0,4.5,1.5,4.5,4.6c0,46.5,0,93.1,0,139.6C-341-174.5-341.1-174.1-341.1-173.6z"/>
</g>
<path class="st2" d="M126.4-428.9v2.5l-10.9,6.8l-1.3-1.8l10.2-6.3l-10.2-6.2l1.2-1.8L126.4-428.9z"/>
<path class="st2" d="M127.8-421.8h14.4v2.1h-14.4V-421.8z"/>
<path class="st0" d="M111.8-466.8h100.6c5.5,0,10,4.5,10,10v82.1c0,5.5-4.5,10-10,10H111.8c-5.5,0-10-4.5-10-10v-82.1
	C101.8-462.3,106.2-466.8,111.8-466.8z"/>
<line class="st7" x1="101.6" y1="-445.9" x2="222.6" y2="-445.9"/>
<text transform="matrix(1 0 0 1 156.12 -354.82)" style="fill:#829496; font-family:'ArialMT'; font-size:8px;">designnutt.com</text>
<g id="o3DiYX.tif">
	<path class="st5" d="M-336.8,524.8c-0.3-3.1-0.6-6.2-1.5-9.2c-1.6-5.1-5-8.3-10.3-9.2c-2.7-0.4-5.5-0.6-8.2-0.7
		c-9.8-0.3-19.6-0.6-28.3-0.8c-9.4,0.2-17.9,0.4-26.3,0.6c-4,0.1-8,0.3-11.9,0.8c-4.8,0.6-8.3,3.1-10.1,7.7
		c-0.7,1.8-1.3,3.7-1.5,5.5c-0.5,4.4-0.9,8.8-1.1,13.2c-0.3,8-0.2,16.1,0.6,24.1c0.3,3.2,0.8,6.4,2,9.4c1.4,3.6,4.1,5.9,7.8,7
		c3.5,1,7.2,1.2,10.8,1.3c9.2,0.3,18.4,0.6,27.6,0.6c8,0,15.9-0.2,23.9-0.4c4.7-0.1,9.5-0.3,14.2-0.8c4.8-0.5,8.4-3,10.3-7.6
		c0.5-1.3,0.9-2.6,1.2-3.9c1.1-4.9,1.3-9.9,1.4-14.9C-336.2,539.9-336.1,532.3-336.8,524.8z M-396.5,553.1c0-9.4,0-18.7,0-28.2
		c9.1,4.7,18,9.4,27.1,14.1C-378.6,543.8-387.5,548.4-396.5,553.1z"/>
</g>
<g id="JTxf2V.tif">
	<g>
		<path class="st5" d="M-207.8,270c27.7,0,55.4,0,83,0c0.1,0.1,0.3,0.1,0.4,0.2c5.1,1.1,8.1,4.9,8.1,10.1c0,26.5,0,53,0,79.4
			c0,1-0.1,2-0.3,3c-1.2,4.5-5,7.3-9.9,7.3c-24.1,0-48.2,0-72.4,0c-2.6,0-5.1,0.1-7.7,0c-4.1-0.2-7.1-2.2-8.8-6
			c-0.4-0.8-0.5-1.6-0.8-2.5c0-27.7,0-55.4,0-83c0.1-0.3,0.2-0.5,0.2-0.8c0.9-3.5,3.1-5.9,6.5-7.2C-209,270.3-208.4,270.2-207.8,270
			z M-202.9,338.3c0.2,0,0.4,0.1,0.6,0.1c3.8,0,7.6,0.1,11.4-0.2c5-0.3,8.9-4.3,9-9.3c0.2-6,0.2-11.9,0-17.9
			c-0.2-5.3-4.4-9.4-9.7-9.5c-3.6-0.1-7.2,0-10.7,0c-0.2,0-0.3,0-0.5,0.1C-202.9,313.8-202.9,326.1-202.9,338.3z M-141.4,326.4
			c-0.1,0-0.2,0-0.2,0c-2-7.6-3.9-15.1-5.9-22.7c-0.6-2.2-0.6-2.2-2.8-2.2c-1.6,0-3.3,0-5,0c2.9,10.8,5.7,21.5,8.6,32.1
			c0.4,1.6,1.5,2.9,2.8,3.9c1.8,1.3,3.9,1.3,5.4-0.3c1.1-1.2,2.1-2.6,2.5-4.1c2.8-10,5.4-20,8.1-30.1c0.1-0.5,0.2-1,0.3-1.5
			c-2.5,0-4.8,0-7.2,0C-137.1,309.8-139.2,318.1-141.4,326.4z M-171.2,308c4,0,7.9,0,11.8,0c0-2.2,0-4.3,0-6.5c-0.4,0-0.8,0-1.2,0
			c-4.1,0-8.1,0-12.2,0c-3.3,0-5.1,1.7-5.1,5.1c0,8.9,0,17.9,0,26.8c0,3.2,1.8,5,5.1,5c4.1,0,8.2,0,12.3,0c0.4,0,0.7,0,1.1-0.1
			c0-2.2,0-4.4,0-6.6c-4,0-7.9,0-11.7,0c0-2.9,0-5.7,0-8.5c2.4,0,4.7,0,7.1,0c0-2.2,0-4.3,0-6.6c-2.4,0-4.7,0-7.1,0
			C-171.2,313.7-171.2,311-171.2,308z"/>
		<path class="st5" d="M-195.8,308.5c1.6,0,3.1-0.2,4.6,0c1.8,0.2,3,1.7,3,3.5c0,5.4,0,10.7,0,16.1c0,2-1.6,3.5-3.7,3.6
			c-1.3,0.1-2.5,0-3.9,0C-195.8,323.9-195.8,316.2-195.8,308.5z"/>
	</g>
</g>
<g id="_x35_pDvOt.tif">
	<g>
		<path class="st8" d="M-336.2,270.1c0,33.3,0,66.6,0,99.9c-33.3,0-66.6,0-99.9,0c0-0.2,0-0.5,0-0.7c0-32.8,0-65.7,0-98.5
			c0-0.2,0-0.4,0-0.7c0.3,0,0.5,0,0.7,0c25.6,0,51.3,0,76.9,0C-351.1,270.1-343.7,270.1-336.2,270.1z M-408.3,307.9c0,0,0.1,0,0.1,0
			c0.1,0.2,0.2,0.3,0.2,0.5c5.5,12,11,24.1,16.5,36.1c0.2,0.5,0.3,1.1,0.7,1.3c0.4,0.2,1,0,1.5,0.1c0.4,0,0.6-0.1,0.7-0.5
			c4.9-12.4,9.7-24.7,14.6-37.1c0.1-0.1,0.1-0.3,0.2-0.4c0.1,0.1,0.1,0.1,0.1,0.2c0,10,0,20.1,0,30.1c0,0.6-0.2,1.1-0.6,1.5
			c-1.6,1.6-3.2,3.2-4.9,4.7c-0.5,0.5-0.5,1-0.4,1.6c8.8,0,17.5,0,26.2,0c0.2-0.7,0-1.2-0.5-1.7c-1.6-1.5-3.1-3.1-4.7-4.6
			c-0.3-0.3-0.5-0.7-0.5-1.2c0-1.4,0-2.8,0-4.2c0-11.3,0-22.6,0-34c0-0.5,0.2-0.9,0.5-1.2c1.6-1.6,3.3-3.2,4.9-4.7
			c0.5-0.5,0.5-1,0.4-1.6c-0.2,0-12.1,0-17.9,0c-0.5,0-0.7,0.2-0.8,0.6c-4.2,10.6-8.5,21.1-12.7,31.7c-0.1,0.2-0.2,0.4-0.3,0.7
			c-0.1-0.3-0.2-0.4-0.3-0.6c-4.8-10.6-9.7-21.2-14.5-31.8c-0.2-0.4-0.4-0.5-0.8-0.5c-6.1,0-12.2,0-18.3,0c-0.2,0-0.4,0-0.7,0
			c0.1,0.5,0,1,0.2,1.3c2,2.5,4.1,5,6.2,7.5c0.5,0.5,0.7,1.1,0.7,1.9c0,9.8,0,19.6,0,29.5c0,0.2,0,0.4,0,0.6c0.1,1-0.2,1.8-0.8,2.6
			c-2.3,2.7-4.5,5.5-6.8,8.2c-0.4,0.5-0.4,1-0.4,1.6c6.7,0,13.3,0,19.9,0c0.1-0.6,0-1.1-0.4-1.7c-2.3-2.7-4.5-5.5-6.8-8.2
			c-0.6-0.7-0.9-1.5-0.8-2.4c0-0.4,0-0.8,0-1.2c0-8,0-15.9,0-23.9C-408.3,308.2-408.3,308-408.3,307.9z"/>
		<path class="st8" d="M-358.5,270.1c-25.6,0-51.3,0-76.9,0c-0.2,0-0.5,0-0.7,0c0,0.3,0,0.5,0,0.7c0,32.8,0,65.7,0,98.5
			c0,0.2,0,0.5,0,0.7c0,0-0.1,0-0.1,0c0-0.1,0-0.3,0-0.4c0-33.2,0-66.4,0-99.6c0.3,0,0.5,0,0.8,0c32.9,0,66.3,0.1,99.2,0.1"/>
	</g>
</g>
</svg>
