<svg id="Layer_1" data-name="Layer 1" xmlns="http://www.w3.org/2000/svg" viewBox="0 0 200 200"><defs><style>.cls-1{fill:none;stroke:#000;stroke-miterlimit:10;}</style></defs><title>portfolio-logo-set</title><g id="_7JV8hd.tif" data-name=" 7JV8hd.tif"><path class="cls-1" d="M125.52,155.56c-2.44,0-3.49-.87-3.85-3.26a11.68,11.68,0,0,1-.14-2V131.11a18,18,0,0,0-3.07-10.26c-.44-.62-.92-1.21-1.5-2,1.41-.25,2.69-.48,4-.73a51.58,51.58,0,0,0,13-3.94,25.68,25.68,0,0,0,12.68-13.4,39,39,0,0,0,3.22-20,27.18,27.18,0,0,0-4.41-12.71c-.42-.6-.74-1.27-1.18-1.84a6.18,6.18,0,0,1-.92-5.53A25.11,25.11,0,0,0,142.16,46a2.17,2.17,0,0,0-2.31-1.47,20.85,20.85,0,0,0-9.62,2.68q-3.41,1.76-6.74,3.69a5.15,5.15,0,0,1-3.89.58A70.73,70.73,0,0,0,95,50.17c-2.61.31-5.2.85-7.77,1.38a4.79,4.79,0,0,1-3.69-.6,47.39,47.39,0,0,0-12.07-5.67,43.31,43.31,0,0,0-4.52-.84,1.85,1.85,0,0,0-2.18,1.39,26.73,26.73,0,0,0-.85,16.28,3.13,3.13,0,0,1-.64,3.06,27.25,27.25,0,0,0-6,13.83,44.2,44.2,0,0,0,.59,14.19,31,31,0,0,0,5,12.52,26.92,26.92,0,0,0,14.34,10.35c3.69,1.14,7.45,1.84,11.19,2.67.42.1.84.17,1.4.28a15.6,15.6,0,0,0-1.75,2.45c-.93,1.91-1.57,3.91-2.41,5.85a2.85,2.85,0,0,1-1.12,1.5c-4.52,1.9-9.1,2.47-13.65.09a17.25,17.25,0,0,1-6.05-5.62c-1.62-2.3-3.23-4.61-5.72-6.14s-4.9-2.3-7.72-1.72c-.52.11-1.26.44-1.38.83a1.94,1.94,0,0,0,.61,1.49,15.63,15.63,0,0,0,2.45,2,18.51,18.51,0,0,1,6.14,7.17c1.32,2.57,2.33,5.29,4.39,7.43a15.06,15.06,0,0,0,10.2,4.77c3.42.22,6.86-.05,10.29-.1h1.11c0,.39.07.76.07,1.15,0,3.92-.14,7.84-.05,11.75.06,2.88-1.73,3.6-3.69,3.69h-.66"/></g></svg>