<svg id="Layer_1" data-name="Layer 1" xmlns="http://www.w3.org/2000/svg" viewBox="0 0 200 200"><defs><style>.cls-1{fill:none;stroke:#000;stroke-linejoin:round;}</style></defs><title>portfolio-logo-set</title><g id="gJjI1E.tif"><path class="cls-1" d="M116.92,59.19h4.32c.79.18,1.65.33,2.47.52a20.6,20.6,0,0,1,9.93,5.4,1.36,1.36,0,0,0,1.05.42c2.45-.69,4.9-1.37,7.28-2.25,1.77-.66,3.44-1.58,5.29-2.47a21.55,21.55,0,0,1-8.47,11.07,39.34,39.34,0,0,0,11.21-3l-.49.79a39.14,39.14,0,0,1-8.89,9.18,1.81,1.81,0,0,0-.8,1.72,54.7,54.7,0,0,1-1.47,14.48,59.55,59.55,0,0,1-18.82,31.84,54.75,54.75,0,0,1-29.75,13.33c-1.58.21-3.22.39-4.84.59H78.27c-1.91-.21-3.83-.34-5.73-.64a58.87,58.87,0,0,1-19.45-6.59C52,133,51,132.37,50,131.76a47.12,47.12,0,0,0,15.81-1.59A40.39,40.39,0,0,0,80,123a20.42,20.42,0,0,1-11.9-4.14A20.1,20.1,0,0,1,61,108.76c1.58.08,3,.25,4.44.19s2.9-.31,4.34-.49A22.28,22.28,0,0,1,58.16,101a20.19,20.19,0,0,1-4.47-13.11,21.33,21.33,0,0,0,9.17,2.52,20.66,20.66,0,0,1-8.5-12.55,20.37,20.37,0,0,1,2.29-14.9,58.81,58.81,0,0,0,19,15.28,57.38,57.38,0,0,0,23.23,6.2,49.81,49.81,0,0,1-.15-6.23c.79-8.51,5.28-14.41,13.18-17.63A43.52,43.52,0,0,1,116.92,59.19Z"/></g></svg>