<svg id="Layer_1" data-name="Layer 1" xmlns="http://www.w3.org/2000/svg" viewBox="0 0 200 200"><defs><style>.cls-1{fill:none;stroke:#000;stroke-miterlimit:10;}</style></defs><title>portfolio-logo-set</title><g id="gi95s1.tif"><path class="cls-1" d="M50.09,100.1c0-4.62-.28-9.24.14-13.83a8.34,8.34,0,0,1,2.9-5.54c14.42-9.87,29-19.45,43.53-29.18,2.39-1.61,4.42-1.54,6.8.06q21.6,14.49,43.32,28.85A6.72,6.72,0,0,1,150,86.7q-.13,13.3,0,26.62a6.94,6.94,0,0,1-3.46,6.46q-21.42,14.15-42.7,28.48c-2.76,1.87-5,1.78-7.69,0q-21.28-14.39-42.71-28.48a6.84,6.84,0,0,1-3.37-6.51C50.19,108.85,50.09,104.47,50.09,100.1ZM61.93,84.82c5,3.31,9.51,6.4,14.14,9.3A2.8,2.8,0,0,0,78.53,94q8.11-5.3,16.09-10.81a3.25,3.25,0,0,0,1.26-2.25c.1-6,.05-11.94.05-18.75Zm76.17,0-34-22.6c0,6.79-.09,12.68.09,18.55a4.44,4.44,0,0,0,2,2.91c4.91,3.44,9.89,6.78,14.92,9.94a3.8,3.8,0,0,0,3.32.21C128.88,91.09,133.22,88.08,138.1,84.82ZM61.94,115.27l34,22.63c0-6.82,0-12.79-.05-18.76a3.3,3.3,0,0,0-1.27-2.25q-8-5.52-16.1-10.8a2.8,2.8,0,0,0-2.46-.13C71.44,108.89,66.91,112,61.94,115.27Zm76.14,0c-4.87-3.26-9.23-6.27-13.69-9a3.85,3.85,0,0,0-3.31.22c-5.07,3.21-10,6.57-15,10-.8.54-1.9,1.45-1.93,2.22-.15,6.17-.08,12.36-.08,19.27ZM84.73,100.05c4.88,3.28,9.51,6.44,14.2,9.48a2.77,2.77,0,0,0,2.43-.17c4.6-3,9.13-6.1,13.89-9.33-4.76-3.2-9.23-6.29-13.76-9.18a3.39,3.39,0,0,0-3,0C93.94,93.75,89.49,96.84,84.73,100.05ZM58.67,107.3,69.51,100,58.67,92.82Zm82.67-14.48-10.84,7.24,10.83,7.17Z"/></g></svg>