<svg id="Layer_1" data-name="Layer 1" xmlns="http://www.w3.org/2000/svg" viewBox="0 0 200 200"><defs><style>.cls-1{fill:#fff;stroke:#000;stroke-miterlimit:10;}</style></defs><title>portfolio-logo-set</title><g id="_5pDvOt.tif" data-name="5pDvOt.tif"><path class="cls-1" d="M150,50.1V150H50.1V50.1H150ZM78,87.85h.13l.22.48,16.55,36.09c.21.45.32,1.08.68,1.31s1,0,1.48.08.57-.14.72-.51q7.29-18.54,14.59-37.07l.18-.41a.22.22,0,0,1,.09.19v30.14a1.89,1.89,0,0,1-.62,1.47c-1.64,1.56-3.23,3.17-4.88,4.7a1.55,1.55,0,0,0-.41,1.56h26.22a1.53,1.53,0,0,0-.54-1.7c-1.6-1.51-3.14-3.07-4.71-4.6a1.57,1.57,0,0,1-.52-1.21c0-1.42,0-2.83,0-4.25q0-17,0-33.95a1.58,1.58,0,0,1,.53-1.2c1.65-1.57,3.27-3.18,5-4.71a1.55,1.55,0,0,0,.43-1.63c-.2,0-12.13,0-17.92,0a.76.76,0,0,0-.83.58Q108,89,101.61,104.89c-.08.2-.17.4-.29.68-.13-.27-.22-.44-.29-.62Q93.77,89,86.52,73.13a.72.72,0,0,0-.79-.51c-6.1,0-12.19,0-18.29,0h-.7c.09.49,0,1,.25,1.3,2,2.53,4.13,5,6.22,7.51a2.8,2.8,0,0,1,.72,1.86q0,14.73,0,29.46a5.83,5.83,0,0,0,0,.59,3.31,3.31,0,0,1-.77,2.58c-2.26,2.75-4.52,5.51-6.81,8.23a1.92,1.92,0,0,0-.35,1.62H86a2,2,0,0,0-.42-1.68c-2.29-2.7-4.53-5.45-6.78-8.18a3.52,3.52,0,0,1-.83-2.44c0-.39,0-.78,0-1.17V87.85Z"/><path class="cls-1" d="M127.76,50.1H50.1V150S50,150,50,150s0-.26,0-.39V50h.76c32.93,0,66.31.09,99.24.1"/></g></svg>