<svg id="Layer_1" data-name="Layer 1" xmlns="http://www.w3.org/2000/svg" viewBox="0 0 1268.87 448.8"><defs><style>.cls-1,.cls-2,.cls-5,.cls-6{fill:none;stroke-miterlimit:10;}.cls-1,.cls-2,.cls-6{stroke:#231f20;}.cls-1{stroke-width:4px;}.cls-2,.cls-5{stroke-width:2px;}.cls-3{fill:#231f20;}.cls-4{fill:#c2c2c1;}.cls-5{stroke:#000;}.cls-7{isolation:isolate;font-size:8px;fill:#829496;font-family:ArialMT, Arial;}</style></defs><title>portfolio-logo-set</title><rect class="cls-1" x="581.32" y="165.39" width="134" height="113.5" rx="10"/><rect class="cls-2" x="333.82" y="162.39" width="119" height="102.07" rx="10"/><line class="cls-2" x1="333.82" y1="185.09" x2="452.82" y2="185.09"/><path class="cls-3" d="M608.74,207.54v2.75l-12.16,7.58-1.44-2,11.3-7-11.3-6.94,1.31-2Z"/><path class="cls-3" d="M610.24,215.39h16v2.37h-16Z"/><rect class="cls-1" x="823.99" y="165.39" width="134" height="113.5" rx="10"/><line class="cls-2" x1="823.99" y1="188.55" x2="958.41" y2="188.55"/><line class="cls-2" x1="581.12" y1="188.55" x2="715.53" y2="188.55"/><rect class="cls-4" x="829.99" y="214.85" width="72.25" height="35.63"/><rect class="cls-4" x="907.24" y="214.85" width="44.75" height="15.33"/><rect class="cls-4" x="829.99" y="194.51" width="22.38" height="15.33"/><rect class="cls-4" x="857.37" y="194.51" width="94.63" height="15.33"/><rect class="cls-4" x="907.24" y="235.12" width="44.75" height="15.33"/><rect class="cls-4" x="829.99" y="255.39" width="122" height="15.33"/><g id="_7JV8hd.tif-2" data-name=" 7JV8hd.tif-2"><path class="cls-5" d="M145.14,295.23H97.66c-2.65,0-3.78-.94-4.18-3.53a15.25,15.25,0,0,1-.15-2.13V268.71A19.43,19.43,0,0,0,90,257.58c-.47-.67-1-1.31-1.63-2.12,1.53-.28,2.92-.53,4.3-.8a55.41,55.41,0,0,0,14.07-4.27,27.83,27.83,0,0,0,13.76-14.54,42.29,42.29,0,0,0,3.44-21.77,29.48,29.48,0,0,0-4.79-13.79c-.45-.65-.8-1.38-1.27-2a6.67,6.67,0,0,1-1-6,27.21,27.21,0,0,0-1.22-15.91,2.34,2.34,0,0,0-2.5-1.6,22.65,22.65,0,0,0-10.44,2.91c-2.47,1.27-4.9,2.61-7.31,4a5.48,5.48,0,0,1-4.22.63,76.61,76.61,0,0,0-26.74-1.46c-2.83.34-5.64.92-8.43,1.5a5.21,5.21,0,0,1-4-.66,51.41,51.41,0,0,0-13.1-6.15,48,48,0,0,0-4.9-.91,2,2,0,0,0-2.36,1.51,29,29,0,0,0-.93,17.66,3.38,3.38,0,0,1-.69,3.32,29.54,29.54,0,0,0-6.48,15,48.27,48.27,0,0,0,.64,15.4,33.71,33.71,0,0,0,5.46,13.55A29.16,29.16,0,0,0,45.22,252.3c4,1.24,8.08,2,12.13,2.9.46.11.92.19,1.52.31a17.07,17.07,0,0,0-1.9,2.65c-1,2.08-1.7,4.25-2.61,6.35a3.14,3.14,0,0,1-1.21,1.63c-4.91,2.06-9.88,2.68-14.81.09a18.8,18.8,0,0,1-6.57-6.09c-1.75-2.5-3.5-5-6.2-6.66s-5.32-2.5-8.38-1.87c-.56.12-1.36.48-1.49.9a2.09,2.09,0,0,0,.62,1.57A16.81,16.81,0,0,0,19,256.25,20,20,0,0,1,25.64,264c1.43,2.78,2.53,5.73,4.76,8.06a16.32,16.32,0,0,0,11.06,5.17c3.71.24,7.45-.05,11.17-.11h1.2c0,.42.08.83.08,1.25,0,4.25-.15,8.5-.06,12.75.07,3.12-1.87,3.9-4,4H5.52c-3,0-4.52-1.5-4.52-4.53V154.25c0-3,1.51-4.53,4.52-4.53H140.7c3,0,4.5,1.51,4.5,4.55V293.86C145.2,294.33,145.17,294.72,145.14,295.23Z"/></g><path class="cls-3" d="M612.69,39.94v2.48l-10.94,6.82-1.3-1.79,10.17-6.28-10.17-6.25,1.19-1.84Z"/><path class="cls-3" d="M614.05,47h14.4v2.13h-14.4Z"/><rect class="cls-1" x="588.02" y="2" width="120.6" height="102.15" rx="10"/><line class="cls-6" x1="587.84" y1="22.85" x2="708.81" y2="22.85"/><text class="cls-7" transform="translate(642.37 113.98)">designnutt.com</text></svg>