<svg id="Layer_1" data-name="Layer 1" xmlns="http://www.w3.org/2000/svg" viewBox="0 0 200 200"><defs><style>.cls-1{fill:none;stroke:#000;stroke-miterlimit:10;}</style></defs><title>portfolio-logo-set</title><g id="o3DiYX.tif"><path class="cls-1" d="M149.44,84.81a44,44,0,0,0-1.54-9.24c-1.61-5.14-5-8.34-10.28-9.22a64.78,64.78,0,0,0-8.24-.68c-9.78-.32-19.57-.56-28.34-.81-9.43.22-17.85.36-26.27.63-4,.12-8,.32-11.94.81A11.63,11.63,0,0,0,52.76,74a23.17,23.17,0,0,0-1.55,5.55c-.51,4.38-.91,8.79-1.06,13.2a186.11,186.11,0,0,0,.55,24.08,33.83,33.83,0,0,0,2,9.38,11.29,11.29,0,0,0,7.76,7,43.87,43.87,0,0,0,10.83,1.32c9.19.27,18.38.59,27.58.64,8,.05,15.92-.19,23.88-.43,4.74-.14,9.49-.34,14.2-.84a11.75,11.75,0,0,0,10.27-7.65,25.57,25.57,0,0,0,1.23-3.9,77.2,77.2,0,0,0,1.4-14.93A197.63,197.63,0,0,0,149.44,84.81ZM89.7,113.08V84.92l27.11,14.13Z"/></g></svg>